HIERARCHY
ROOT Hips
{
	OFFSET 0.000000 0.000000 0.000000
	CHANNELS 6 Xposition Yposition Zposition Zrotation Xrotation Yrotation
	JOINT Spine
	{
		OFFSET 0.000000 0.000001 11.947999
		CHANNELS 3 Zrotation Xrotation Yrotation
		JOINT Spine1
		{
			OFFSET 0.000000 0.000002 28.892605
			CHANNELS 3 Zrotation Xrotation Yrotation
			JOINT Neck
			{
				OFFSET 0.000000 0.000002 31.806744
				CHANNELS 3 Zrotation Xrotation Yrotation
				JOINT Head
				{
					OFFSET 0.000000 -2.914145 22.584633
					CHANNELS 3 Zrotation Xrotation Yrotation
					End Site
					{
						OFFSET 0.000000 0.000002 29.141464
					}
				}
			}
			JOINT LeftShoulder
			{
				OFFSET 5.796312 0.293755 26.220829
				CHANNELS 3 Zrotation Xrotation Yrotation
				JOINT LeftArm
				{
					OFFSET 16.896124 0.000000 0.000000
					CHANNELS 3 Zrotation Xrotation Yrotation
					JOINT LeftForeArm
					{
						OFFSET 44.564972 0.000000 0.000000
						CHANNELS 3 Zrotation Xrotation Yrotation
						JOINT LeftHand
						{
							OFFSET 34.929039 0.000000 0.000000
							CHANNELS 3 Zrotation Xrotation Yrotation
							End Site
							{
								OFFSET 21.856087 0.000000 0.000000
							}
						}
					}
				}
			}
			JOINT RightShoulder
			{
				OFFSET -5.857178 0.293755 26.220829
				CHANNELS 3 Zrotation Xrotation Yrotation
				JOINT RightArm
				{
					OFFSET -16.896122 0.000000 0.000000
					CHANNELS 3 Zrotation Xrotation Yrotation
					JOINT RightForeArm
					{
						OFFSET -44.564968 0.000000 0.000000
						CHANNELS 3 Zrotation Xrotation Yrotation
						JOINT RightHand
						{
							OFFSET -34.929039 0.000000 0.000000
							CHANNELS 3 Zrotation Xrotation Yrotation
							End Site
							{
								OFFSET -21.856102 0.000000 0.000000
							}
						}
					}
				}
			}
		}
	}
	JOINT LeftUpLeg
	{
		OFFSET 14.570731 0.000000 0.000000
		CHANNELS 3 Zrotation Xrotation Yrotation
		JOINT LeftLeg
		{
			OFFSET 0.000000 -0.000005 -70.361885
			CHANNELS 3 Zrotation Xrotation Yrotation
			JOINT LeftFoot
			{
				OFFSET 0.000000 -0.000004 -54.880959
				CHANNELS 3 Zrotation Xrotation Yrotation
				JOINT LeftToeBase
				{
					OFFSET 0.000000 -21.856096 -9.470978
					CHANNELS 3 Zrotation Xrotation Yrotation
					End Site
					{
						OFFSET 0.000000 -5.828291 0.000000
					}
				}
			}
		}
	}
	JOINT RightUpLeg
	{
		OFFSET -14.570731 0.000000 0.000000
		CHANNELS 3 Zrotation Xrotation Yrotation
		JOINT RightLeg
		{
			OFFSET 0.000000 -0.000005 -70.361885
			CHANNELS 3 Zrotation Xrotation Yrotation
			JOINT RightFoot
			{
				OFFSET 0.000000 -0.000004 -54.880959
				CHANNELS 3 Zrotation Xrotation Yrotation
				JOINT RightToeBase
				{
					OFFSET 0.000000 -21.856096 -9.470978
					CHANNELS 3 Zrotation Xrotation Yrotation
					End Site
					{
						OFFSET 0.000000 -5.828291 0.000000
					}
				}
			}
		}
	}
}
MOTION
Frames: 16
Frame Time: 0.033333
0.000000 -0.000000 -0.000000 -2.804847 -22.759355 7.311425 -4.643249 28.709327 -9.286765 5.522490 -6.645466 7.120728 -7.662654 18.567832 -6.345704 -0.038500 0.591495 0.618746 10.541837 5.289180 7.397261 -23.084187 -0.525938 60.269712 -97.710965 -17.360123 0.000019 22.028501 41.735898 9.158327 -17.534608 8.508105 -18.145888 27.166927 4.459812 -57.920462 75.775553 -29.423680 -0.000796 18.985885 56.388112 -62.121226 11.630864 18.544669 -13.247194 -0.000011 21.723147 0.000050 19.748911 13.030948 3.282720 -0.000010 -25.443107 -0.000001 -22.396569 23.506574 5.893869 0.000003 -0.805837 0.000001 -7.449204 21.924207 -1.110028 0.000018 -27.911186 0.000014
0.613852 0.127965 0.062825 -2.703135 -22.156184 6.671079 -4.853909 27.753150 -8.496532 5.503137 -6.433932 6.885575 -8.283121 18.171604 -6.227250 -0.064167 0.732439 0.593588 10.519147 5.121827 7.593862 -23.309602 -0.684087 60.302080 -97.782095 -17.120887 -0.000143 21.687999 41.736520 9.517536 -17.691110 8.245422 -18.012679 28.812866 5.135745 -57.365188 76.400126 -29.222882 0.000104 17.840323 57.532773 -61.126566 12.591633 18.819391 -12.361429 -0.000012 19.576499 0.000054 19.863805 13.254275 2.026655 -0.000013 -25.261304 -0.999999 -22.188964 22.114821 6.535908 0.000007 -0.154655 0.000004 -7.752651 22.010635 -1.380861 -0.000014 -27.713650 -0.000012
1.253430 0.333164 0.139057 -2.751070 -21.386690 5.864192 -4.965146 26.636426 -7.489956 5.352587 -6.141722 6.396941 -8.659510 17.581940 -5.846726 -0.095415 0.778252 0.504042 10.528578 4.913673 7.833325 -23.165838 -0.683736 60.401132 -97.941060 -17.356281 -0.000034 21.530580 41.575327 9.766692 -17.606891 7.807719 -17.396258 30.201427 5.529416 -57.250987 76.867434 -28.931438 0.000143 13.985545 58.124671 -56.404085 14.014246 18.713685 -11.716991 -0.000006 17.807746 0.000045 18.068499 13.698827 1.951577 -0.000025 -25.224717 -0.000004 -22.117867 20.232808 7.320295 -0.000003 0.890417 -0.000002 -7.825555 22.115565 -1.542680 0.000001 -27.667344 -0.000014
1.935866 0.570873 0.179778 -2.771475 -20.561198 5.061794 -5.031602 25.517083 -6.512836 5.216436 -5.728713 5.801490 -8.942166 16.568920 -5.330570 -0.112063 0.797253 0.463473 10.664851 4.590489 8.276118 -22.986495 -0.524193 60.329688 -98.146123 -17.797328 0.000413 21.427239 41.405471 9.911394 -17.588196 7.227873 -16.541311 31.148135 5.708340 -57.366055 77.667891 -27.619755 -0.000360 8.800256 58.183417 -51.007030 15.309239 18.497079 -10.928079 0.000002 16.259235 0.000020 16.264535 14.078006 1.821620 -0.000014 -25.214514 0.000006 -22.096478 18.209117 8.133636 0.000003 1.991681 -0.000010 -7.760836 22.104661 -1.888462 0.000016 -27.540653 -0.000001
2.619828 0.801227 0.186882 -2.546706 -19.975389 4.529606 -5.051750 24.763288 -5.820634 5.118460 -5.445709 5.266436 -9.302317 15.571889 -4.782454 -0.119729 0.761675 0.460770 10.720371 4.398497 8.876849 -22.815547 -0.417108 60.024693 -98.147496 -18.093023 -0.000401 20.988987 41.268799 10.174368 -17.623498 6.794816 -15.729024 31.892066 5.853166 -57.268513 78.464264 -26.100822 0.000521 7.024094 58.733063 -49.124852 15.800924 18.665724 -9.982161 0.000001 14.671311 0.000021 15.620605 14.292265 1.414334 -0.000005 -25.223776 0.000002 -21.958305 16.628008 8.791502 0.000001 2.969113 -0.000006 -7.953598 22.185614 -2.165872 0.000018 -27.486228 -0.000003
3.256227 1.000909 0.164414 -2.118903 -19.614242 4.250013 -5.008176 24.318969 -5.444424 5.048123 -5.304898 4.958542 -9.704186 14.735530 -4.388163 -0.121581 0.669793 0.487386 10.722446 4.313820 9.349134 -22.644992 -0.346676 59.757298 -97.996460 -17.945489 -0.000640 20.914898 41.183445 10.308477 -17.832015 6.576743 -15.314555 32.589964 5.992700 -56.728942 79.103324 -25.873805 0.000775 5.200303 59.016407 -47.221472 15.308305 19.258866 -8.831521 0.000005 12.938002 0.000024 16.332883 14.284846 0.519910 -0.000031 -25.079908 -0.000002 -21.815925 15.498772 9.297241 0.000005 3.758592 0.000002 -8.185030 22.149687 -2.730019 -0.000007 -27.267720 -0.000014
3.821520 1.213293 0.107066 -1.602831 -19.314132 4.197413 -4.869534 23.984479 -5.342232 4.942687 -5.217300 4.864126 -9.957846 14.059034 -4.228546 -0.133305 0.548526 0.479649 10.778654 4.238435 9.574070 -22.529879 -0.291837 59.680274 -97.581533 -17.943626 0.000172 21.279630 41.169437 10.155736 -17.772668 6.460879 -15.252415 32.599888 6.090759 -56.103594 79.719687 -25.987664 0.000737 1.945078 58.606752 -43.997029 14.403733 19.959261 -7.721631 -0.000007 11.074331 0.000029 17.721018 14.157694 -0.894902 -0.000026 -24.924549 -0.000004 -21.541959 14.572779 9.571202 -0.000004 4.528417 -0.000010 -8.812888 22.339735 -2.837781 0.000000 -27.414177 -0.000008
4.329410 1.398646 0.051328 -1.189293 -19.204603 4.154608 -4.631961 23.795093 -5.223329 4.741965 -5.152776 4.849808 -10.045231 13.562182 -4.274981 -0.143121 0.492874 0.463874 10.946091 4.160487 9.572969 -22.370319 0.005333 59.828106 -97.157030 -17.799854 -0.000048 21.918422 41.013466 9.612410 -17.648384 6.388479 -15.396373 32.422222 6.108619 -55.588799 79.766159 -25.873252 0.000342 2.250304 59.100063 -44.591515 14.142935 20.727254 -7.032646 -0.000001 9.296098 0.000013 18.344660 14.171549 -2.093622 -0.000019 -24.787733 -0.000001 -21.220409 13.881005 9.850974 -0.000004 5.261438 -0.000011 -9.333553 22.521164 -2.963037 -0.000000 -27.510721 -0.000012
4.787837 1.601799 0.031093 -0.914733 -19.113591 3.969060 -4.564451 23.629145 -4.867640 4.651794 -5.119443 4.941562 -9.949177 13.321191 -4.521439 -0.141299 0.497117 0.485149 11.074443 4.097732 9.525584 -21.930353 0.406779 59.887420 -96.911082 -18.242078 0.000075 23.107034 41.116147 9.142792 -17.468967 6.375277 -15.651375 32.190108 5.873117 -55.336861 79.208365 -25.977106 -0.000135 4.494025 59.635474 -46.860647 14.663970 21.290779 -6.687420 0.000007 7.772734 0.000003 17.708763 14.605642 -2.619839 -0.000006 -24.838111 0.000003 -20.832497 13.144903 10.182085 0.000007 6.022011 -0.000013 -9.565737 22.409431 -3.627737 -0.000011 -27.116329 -0.000021
5.227733 1.847615 0.014952 -0.805919 -18.848332 3.615320 -4.548720 23.280362 -4.228492 4.565447 -5.019705 4.856925 -9.738727 13.004644 -4.678851 -0.151143 0.580164 0.440768 11.260585 3.996294 9.534940 -21.368457 0.893726 59.837272 -96.747649 -18.788969 -0.000560 23.426557 41.055574 9.007375 -17.337708 6.247224 -15.672436 31.958995 5.574153 -55.613156 78.636023 -26.160041 -0.000568 4.866036 59.793074 -47.268358 15.322595 21.496224 -6.230745 0.000001 6.612243 0.000007 16.873808 14.970091 -2.922947 -0.000024 -24.825871 -0.000007 -20.185980 12.186663 10.532882 0.000003 6.794904 -0.000016 -10.176156 22.687715 -3.730728 0.000007 -27.261940 -0.000010
5.647584 2.117201 -0.004280 -0.734117 -18.592769 3.352717 -4.484423 23.035839 -3.586984 4.457396 -5.000114 4.585920 -9.576621 12.596209 -4.601562 -0.154449 0.683873 0.422996 11.426736 4.012187 9.591279 -20.755188 1.391686 59.655576 -96.622902 -19.476609 0.000198 23.198273 40.771998 9.002840 -17.199513 6.139394 -15.413792 31.582822 5.362327 -56.235355 78.674449 -25.379262 -0.000087 6.725395 60.341702 -48.987572 15.739145 21.624574 -5.727119 0.000001 5.602849 0.000013 16.444963 15.319786 -3.369207 -0.000026 -24.853846 -0.000003 -19.698470 11.128223 10.808343 0.000002 7.736024 -0.000016 -10.348199 22.599899 -4.165899 0.000010 -26.968374 -0.000021
6.051242 2.402015 -0.054524 -0.723768 -18.391037 3.049070 -4.434855 22.874355 -2.936291 4.374927 -4.930569 4.353426 -9.400349 12.063458 -4.397608 -0.146144 0.765746 0.433142 11.537516 3.978089 9.727276 -20.033903 1.824251 59.362424 -96.483730 -19.936970 0.000363 23.355183 40.694441 9.050179 -17.106854 5.998787 -15.099460 31.198761 5.301452 -56.971731 79.180464 -25.250415 -0.000293 10.470144 60.771526 -52.392339 15.969402 21.850636 -5.103547 -0.000006 4.547093 0.000015 16.337681 15.649690 -3.935638 -0.000014 -24.947124 -0.000006 -19.172408 9.982816 11.143451 0.000001 8.931896 -0.000017 -10.667327 22.523374 -4.228854 0.000009 -26.931882 -0.000013
6.446940 2.690340 -0.127164 -0.813468 -18.327906 2.650087 -4.411373 22.961091 -2.221076 4.299437 -4.963843 4.176740 -9.197189 11.601192 -4.072914 -0.137421 0.692873 0.448807 11.662412 4.034039 9.962277 -19.262877 2.124117 58.892985 -96.288366 -20.104706 0.000175 23.013002 40.662609 9.168622 -17.080483 5.976643 -14.832376 31.118642 5.270041 -57.505849 79.588492 -26.575810 -0.000164 11.663082 60.240513 -53.087553 16.438939 22.332349 -4.528481 0.000005 3.273200 0.000004 16.026211 16.077285 -4.468158 -0.000031 -25.053282 -0.000001 -18.529070 8.809543 11.584047 -0.000005 10.375290 -0.000015 -10.903158 22.281658 -4.496986 0.000002 -26.849841 -0.000002
6.820011 3.001716 -0.217288 -1.034650 -18.250156 2.169281 -4.427482 23.066350 -1.371734 4.232461 -5.008150 3.966210 -8.926897 11.221798 -3.671401 -0.133040 0.555678 0.442093 11.863767 4.101760 10.282823 -18.569174 2.274951 58.342902 -95.926455 -20.179625 -0.000466 23.215622 40.589127 8.993530 -17.053159 5.955159 -14.647923 31.182245 5.174554 -57.882800 79.786465 -27.720251 -0.000255 11.344146 59.656518 -52.623035 17.232663 22.902003 -4.024503 -0.000006 1.830304 0.000002 15.428050 16.471063 -4.777535 -0.000026 -25.176340 -0.000001 -17.470637 7.442243 12.002238 0.000002 12.258967 -0.000021 -11.392283 22.073285 -4.606391 0.000002 -27.030631 -0.000004
7.169035 3.314442 -0.327299 -1.276193 -18.405485 1.632643 -4.582979 23.428223 -0.387348 4.263451 -5.049563 3.784242 -8.708600 10.965449 -3.252318 -0.114635 0.353059 0.488174 11.984558 4.168836 10.516679 -18.041550 2.376068 57.895176 -95.422517 -20.246697 0.000260 23.854615 40.700705 8.502276 -17.081413 5.941701 -14.448031 31.345463 5.044890 -58.142347 79.966905 -27.168100 -0.000133 11.976940 59.303630 -52.786516 17.939184 23.748255 -3.512588 -0.000007 0.353197 0.000021 14.960450 16.913119 -4.935598 -0.000021 -25.403482 -0.000004 -16.392473 5.991452 12.519665 0.000001 14.735372 -0.000019 -11.485595 21.248995 -5.439797 -0.000003 -26.641592 -0.000013
7.505652 3.662712 -0.471955 -1.581749 -18.646777 0.872535 -4.876097 23.922193 0.892619 4.395585 -5.063562 3.613956 -8.541993 10.710556 -2.814517 -0.103754 0.230987 0.499719 11.866655 4.226349 10.638682 -17.519292 2.477542 57.616197 -95.011360 -20.401925 0.000576 24.987062 40.727042 7.712463 -17.148450 5.906715 -14.220424 31.472497 4.899069 -58.335696 80.275002 -26.089296 -0.000306 11.862998 59.117295 -52.287130 18.364859 24.639305 -2.737204 -0.000004 -0.947370 -0.000002 14.595344 17.322012 -4.972183 -0.000031 -25.713161 -0.000013 -15.000759 4.377773 13.227798 -0.000004 17.652105 -0.000006 -11.859229 20.521597 -6.035594 0.000008 -26.347262 -0.000012
